<?xml version="1.0" standalone="no"?>
<!DOCTYPE svg PUBLIC "-//W3C//DTD SVG 20010904//EN"
 "http://www.w3.org/TR/2001/REC-SVG-20010904/DTD/svg10.dtd">
<svg version="1.0" xmlns="http://www.w3.org/2000/svg"
 width="380.000000pt" height="380.000000pt" viewBox="0 0 380.000000 380.000000"
 preserveAspectRatio="xMidYMid meet">
<metadata>
Created by potrace 1.14, written by Peter Selinger 2001-2017
</metadata>
<g transform="translate(0.000000,380.000000) scale(0.100000,-0.100000)"
fill="#000000" stroke="none">
<path d="M2206 3722 c4 -9 9 -34 12 -54 5 -50 -9 -49 -73 2 -47 37 -54 40
-116 40 -71 0 -118 -12 -161 -42 -20 -14 -63 -23 -165 -33 -76 -8 -154 -18
-173 -24 -173 -48 -216 -67 -350 -158 -84 -58 -158 -137 -313 -338 -106 -137
-227 -385 -247 -506 -6 -41 -21 -121 -31 -179 -39 -208 -36 -301 11 -455 11
-33 24 -79 30 -103 11 -43 62 -112 84 -112 16 0 32 43 47 125 6 39 20 102 30
140 10 39 27 124 38 190 12 66 28 143 35 170 19 66 36 182 36 242 1 140 150
375 255 402 24 6 60 11 81 11 25 0 68 17 139 55 117 62 214 84 287 65 33 -10
46 -8 82 9 23 12 48 21 54 21 19 0 39 -42 41 -85 3 -59 15 -62 40 -11 32 68
47 74 181 70 63 -1 117 -3 120 -3 8 -1 66 -55 185 -171 155 -152 237 -310 251
-490 l4 -55 -48 95 c-57 112 -92 143 -211 189 -119 46 -242 38 -278 -16 -13
-19 -12 -24 6 -42 23 -23 80 -41 132 -41 64 0 153 -21 196 -46 24 -14 70 -57
104 -97 34 -40 75 -85 91 -101 15 -16 43 -70 63 -120 38 -101 47 -137 85 -350
15 -87 12 -297 -5 -401 -9 -49 -20 -116 -25 -148 -5 -32 -18 -76 -29 -98 -26
-50 -26 -67 -1 -71 l20 -3 -20 -37 c-11 -21 -17 -44 -14 -53 4 -9 1 -15 -7
-15 -15 0 21 -29 37 -30 16 0 32 63 45 185 6 61 18 148 26 195 7 47 16 112 19
145 6 69 36 127 89 174 43 38 65 40 65 6 0 -13 6 -28 14 -32 8 -4 18 -34 23
-68 l9 -60 17 27 c27 39 56 167 67 293 6 61 15 135 20 165 42 226 31 362 -39
515 -17 37 -31 70 -31 74 0 10 -38 108 -51 133 -5 10 -9 23 -9 29 0 21 -61
133 -108 199 -26 36 -64 92 -86 125 -21 33 -52 76 -69 95 -70 81 -239 182
-350 211 -40 10 -50 17 -62 47 -9 19 -17 58 -19 86 -5 67 -22 103 -59 121 -27
13 -28 13 -21 -3z"/>
<path d="M1210 2740 c-103 -41 -175 -85 -178 -108 -4 -27 16 -36 51 -23 15 6
69 15 120 21 50 6 106 15 122 20 17 4 42 11 58 14 40 9 37 50 -5 76 -41 25
-106 25 -168 0z"/>
<path d="M2147 2480 c-15 -5 -40 -19 -57 -33 -16 -14 -61 -37 -99 -52 -88 -33
-131 -78 -131 -134 0 -54 63 -150 121 -183 113 -64 185 -74 319 -44 41 10 86
20 100 23 14 3 19 8 13 10 -7 3 -13 11 -13 18 0 8 -9 19 -20 25 -15 8 -20 21
-20 55 0 34 -5 47 -20 55 -12 6 -20 21 -20 36 0 36 28 84 48 84 25 0 60 -35
68 -67 6 -21 2 -31 -19 -48 -26 -20 -33 -47 -21 -79 7 -18 35 -21 51 -5 17 17
69 -16 98 -61 24 -38 50 -55 40 -27 -2 6 -9 65 -15 129 -5 65 -14 128 -20 142
-14 39 -78 92 -156 131 -63 31 -79 35 -145 34 -41 0 -86 -4 -102 -9z m67 -173
c11 -18 28 -42 39 -54 l20 -23 -71 0 c-60 0 -73 3 -85 20 -25 36 -6 83 38 92
30 6 39 1 59 -35z"/>
<path d="M1151 2459 c-30 -10 -66 -29 -79 -42 -32 -30 -63 -92 -56 -112 6 -14
13 -11 43 18 89 84 135 96 124 35 -6 -41 13 -61 54 -56 22 2 30 10 37 35 6 18
15 34 21 36 37 15 208 -94 191 -121 -4 -7 -31 -12 -59 -12 -66 -1 -127 -15
-139 -32 -15 -23 -4 -60 24 -81 37 -28 158 -36 193 -13 38 25 40 55 10 145
-22 66 -36 90 -80 136 -30 30 -70 62 -89 70 -48 20 -129 18 -195 -6z"/>
<path d="M1472 1768 c-21 -21 -14 -63 12 -78 54 -29 104 16 72 65 -18 27 -63
34 -84 13z"/>
<path d="M1788 1745 c-15 -14 -30 -36 -32 -48 -13 -62 -18 -96 -19 -137 -2
-45 -2 -45 33 -48 59 -5 83 -20 125 -77 31 -44 48 -58 80 -66 68 -18 109 -33
135 -50 14 -9 53 -31 88 -49 49 -26 62 -38 62 -56 0 -40 -26 -42 -230 -13 -36
5 -130 12 -210 15 -126 5 -148 4 -159 -10 -12 -14 -10 -16 20 -16 42 0 124
-22 164 -44 20 -11 56 -16 110 -16 55 0 101 -8 150 -23 65 -22 72 -27 97 -73
34 -61 34 -76 2 -131 -19 -33 -38 -49 -77 -67 -29 -12 -58 -30 -66 -39 -16
-21 -37 -22 -44 -3 -9 22 -56 29 -83 11 -13 -8 -39 -15 -57 -15 -27 0 -40 7
-60 33 -13 18 -26 41 -28 52 -6 30 -52 31 -110 0 -36 -18 -59 -24 -82 -20 -36
6 -73 -16 -64 -38 3 -8 31 -27 63 -42 50 -24 65 -26 115 -21 86 10 129 -16
129 -77 0 -12 7 -35 16 -52 23 -43 37 -154 23 -171 -8 -9 -9 -33 -5 -69 5 -41
3 -55 -6 -55 -21 0 -34 13 -51 47 -9 17 -30 41 -46 53 -17 11 -42 43 -57 70
-28 52 -54 66 -54 29 0 -11 -9 -39 -19 -63 -18 -37 -27 -45 -82 -67 -56 -21
-106 -60 -147 -112 -18 -23 -74 -21 -116 4 -56 33 -46 1 16 -52 73 -63 96 -77
156 -94 42 -13 57 -23 77 -56 22 -34 28 -38 46 -29 11 6 24 22 29 35 14 38 90
48 90 12 0 -8 -9 -24 -20 -37 -11 -13 -20 -34 -20 -47 l0 -23 243 0 242 0 54
27 c38 20 58 37 67 60 8 18 26 39 42 47 47 25 78 69 102 144 18 57 37 91 90
156 90 112 120 187 85 216 -20 17 -19 39 5 75 29 44 27 107 -5 136 -31 30 -31
40 -1 103 24 51 36 119 24 131 -4 4 -4 14 -1 23 3 12 0 11 -14 -4 -10 -12 -34
-27 -54 -33 -20 -6 -52 -30 -72 -51 -83 -93 -172 -15 -121 106 20 47 21 213 2
244 -20 31 -69 50 -152 56 -54 5 -80 3 -91 -6 -20 -17 -48 -5 -41 18 4 11 -12
48 -41 96 l-46 78 -108 -4 c-83 -3 -109 -1 -113 9 -6 14 23 33 50 33 32 0 104
41 104 59 0 52 -86 68 -132 26z"/>
<path d="M2870 1496 c0 -14 4 -26 9 -26 16 0 33 -69 27 -105 -8 -38 8 -55 23
-26 18 33 13 96 -9 116 -11 10 -20 24 -20 30 0 7 -7 18 -15 25 -13 11 -15 8
-15 -14z"/>
<path d="M1275 1143 c-18 -10 -25 -18 -17 -21 18 -6 73 18 66 29 -7 12 -14 11
-49 -8z"/>
<path d="M2785 1071 c-3 -6 -14 -11 -25 -11 -20 0 -36 -44 -63 -180 -8 -41
-22 -99 -30 -128 -14 -49 -14 -53 3 -62 24 -13 46 13 66 80 9 29 26 76 39 104
40 88 60 165 49 184 -13 20 -30 26 -39 13z"/>
<path d="M1645 1064 c-11 -3 -30 -7 -42 -10 -38 -8 -28 -39 25 -72 l47 -31 65
13 c43 9 70 21 82 36 24 29 23 39 -4 49 -29 11 -146 21 -173 15z"/>
<path d="M1282 747 c-12 -14 -6 -46 15 -87 17 -34 16 -44 -7 -65 -19 -17 -19
-18 16 -42 46 -30 64 -18 64 42 0 41 9 57 75 137 20 24 8 28 -37 12 -52 -18
-73 -18 -92 1 -18 18 -21 18 -34 2z"/>
<path d="M1132 474 c3 -73 5 -77 41 -110 43 -40 57 -37 57 11 0 39 -62 160
-87 169 -13 5 -15 -4 -11 -70z"/>
<path d="M2690 415 c-9 -11 -10 -31 -4 -72 10 -72 11 -91 12 -230 l2 -113 75
0 75 0 0 39 c0 42 -14 82 -65 181 -18 36 -36 80 -40 99 -4 18 -15 51 -25 73
-15 33 -19 36 -30 23z"/>
<path d="M995 230 c-11 -18 -34 -144 -34 -192 -1 -37 0 -38 35 -38 l37 0 -7
94 c-8 113 -18 157 -31 136z"/>
<path d="M2960 41 c0 -25 14 -41 36 -41 29 0 31 11 6 33 -20 19 -42 22 -42 8z"/>
</g>
</svg>
